REM DIRINDEX 1\2,1\3,1\4
REM DIRNAME folder01,folder02,folder03,folder04
TITLE ""
FILE "097 097_Lesson 11_TOEFL_3900.mp3" MP3
  TRACK 01 AUDIO
    TITLE "4:cjc151_4222"
    INDEX 01 00:00:00
  TRACK 02 AUDIO
    TITLE "0:"
    INDEX 01 00:01:34
  TRACK 03 AUDIO
    TITLE "2:cjc151_4223"
    INDEX 01 00:02:16
  TRACK 04 AUDIO
    TITLE "0:"
    INDEX 01 00:03:27
  TRACK 05 AUDIO
    TITLE "3:cjc151_4224"
    INDEX 01 00:05:01
  TRACK 06 AUDIO
    TITLE "0:"
    INDEX 01 00:07:62
  TRACK 07 AUDIO
    TITLE "2:cjc151_4225"
    INDEX 01 00:09:44
  TRACK 08 AUDIO
    TITLE "0:"
    INDEX 01 00:10:57
  TRACK 09 AUDIO
    TITLE "3:cjc151_4226"
    INDEX 01 00:12:28
  TRACK 10 AUDIO
    TITLE "0:"
    INDEX 01 00:16:48
  TRACK 11 AUDIO
    TITLE "2:cjc151_4227"
    INDEX 01 00:18:25
  TRACK 12 AUDIO
    TITLE "0:"
    INDEX 01 00:19:20
  TRACK 13 AUDIO
    TITLE "3:cjc151_4228"
    INDEX 01 00:21:06
  TRACK 14 AUDIO
    TITLE "0:"
    INDEX 01 00:24:51
  TRACK 15 AUDIO
    TITLE "2:cjc151_4229"
    INDEX 01 00:26:36
  TRACK 16 AUDIO
    TITLE "0:"
    INDEX 01 00:27:38
  TRACK 17 AUDIO
    TITLE "3:cjc151_4230"
    INDEX 01 00:29:17
  TRACK 18 AUDIO
    TITLE "0:"
    INDEX 01 00:32:58
  TRACK 19 AUDIO
    TITLE "2:cjc151_4231"
    INDEX 01 00:34:42
  TRACK 20 AUDIO
    TITLE "0:"
    INDEX 01 00:35:55
  TRACK 21 AUDIO
    TITLE "3:cjc151_4232"
    INDEX 01 00:37:32
  TRACK 22 AUDIO
    TITLE "0:"
    INDEX 01 00:41:55
  TRACK 23 AUDIO
    TITLE "2:cjc151_4233"
    INDEX 01 00:43:39
  TRACK 24 AUDIO
    TITLE "0:"
    INDEX 01 00:44:38
  TRACK 25 AUDIO
    TITLE "3:cjc151_4234"
    INDEX 01 00:46:17
  TRACK 26 AUDIO
    TITLE "0:"
    INDEX 01 00:50:60
  TRACK 27 AUDIO
    TITLE "2:cjc151_4235"
    INDEX 01 00:52:41
  TRACK 28 AUDIO
    TITLE "0:"
    INDEX 01 00:53:47
  TRACK 29 AUDIO
    TITLE "3:cjc151_4236"
    INDEX 01 00:55:26
  TRACK 30 AUDIO
    TITLE "0:"
    INDEX 01 00:59:49
  TRACK 31 AUDIO
    TITLE "2:cjc151_4237"
    INDEX 01 01:01:25
  TRACK 32 AUDIO
    TITLE "0:"
    INDEX 01 01:02:38
  TRACK 33 AUDIO
    TITLE "3:cjc151_4238"
    INDEX 01 01:04:19
  TRACK 34 AUDIO
    TITLE "0:"
    INDEX 01 01:07:55
  TRACK 35 AUDIO
    TITLE "2:cjc151_4239"
    INDEX 01 01:09:32
  TRACK 36 AUDIO
    TITLE "0:"
    INDEX 01 01:10:37
  TRACK 37 AUDIO
    TITLE "3:cjc151_4240"
    INDEX 01 01:12:19
  TRACK 38 AUDIO
    TITLE "0:"
    INDEX 01 01:15:42
  TRACK 39 AUDIO
    TITLE "2:cjc151_4241"
    INDEX 01 01:17:22
  TRACK 40 AUDIO
    TITLE "0:"
    INDEX 01 01:18:23
  TRACK 41 AUDIO
    TITLE "3:cjc151_4242"
    INDEX 01 01:20:02
  TRACK 42 AUDIO
    TITLE "0:"
    INDEX 01 01:23:07
  TRACK 43 AUDIO
    TITLE "2:cjc151_4243"
    INDEX 01 01:24:61
  TRACK 44 AUDIO
    TITLE "0:"
    INDEX 01 01:25:60
  TRACK 45 AUDIO
    TITLE "3:cjc151_4244"
    INDEX 01 01:27:40
  TRACK 46 AUDIO
    TITLE "0:"
    INDEX 01 01:31:10
  TRACK 47 AUDIO
    TITLE "2:cjc151_4245"
    INDEX 01 01:32:68
  TRACK 48 AUDIO
    TITLE "0:"
    INDEX 01 01:34:08
  TRACK 49 AUDIO
    TITLE "3:cjc151_4246"
    INDEX 01 01:35:63
  TRACK 50 AUDIO
    TITLE "0:"
    INDEX 01 01:39:29
  TRACK 51 AUDIO
    TITLE "2:cjc151_4247"
    INDEX 01 01:41:09
  TRACK 52 AUDIO
    TITLE "0:"
    INDEX 01 01:42:14
  TRACK 53 AUDIO
    TITLE "3:cjc151_4248"
    INDEX 01 01:43:68
  TRACK 54 AUDIO
    TITLE "0:"
    INDEX 01 01:47:56
  TRACK 55 AUDIO
    TITLE "2:cjc151_4249"
    INDEX 01 01:49:35
  TRACK 56 AUDIO
    TITLE "0:"
    INDEX 01 01:50:39
  TRACK 57 AUDIO
    TITLE "3:cjc151_4250"
    INDEX 01 01:52:18
  TRACK 58 AUDIO
    TITLE "0:"
    INDEX 01 01:56:20
  TRACK 59 AUDIO
    TITLE "2:cjc151_4251"
    INDEX 01 01:57:74
  TRACK 60 AUDIO
    TITLE "0:"
    INDEX 01 01:58:66
  TRACK 61 AUDIO
    TITLE "3:cjc151_4252"
    INDEX 01 02:00:43
  TRACK 62 AUDIO
    TITLE "0:"
    INDEX 01 02:04:39
  TRACK 63 AUDIO
    TITLE "2:cjc151_4253"
    INDEX 01 02:06:12
  TRACK 64 AUDIO
    TITLE "0:"
    INDEX 01 02:07:14
  TRACK 65 AUDIO
    TITLE "3:cjc151_4254"
    INDEX 01 02:08:70
  TRACK 66 AUDIO
    TITLE "0:"
    INDEX 01 02:12:56
  TRACK 67 AUDIO
    TITLE "2:cjc151_4255"
    INDEX 01 02:14:35
  TRACK 68 AUDIO
    TITLE "0:"
    INDEX 01 02:15:51
  TRACK 69 AUDIO
    TITLE "3:cjc151_4256"
    INDEX 01 02:17:28
  TRACK 70 AUDIO
    TITLE "0:"
    INDEX 01 02:21:32
  TRACK 71 AUDIO
    TITLE "2:cjc151_4257"
    INDEX 01 02:23:19
  TRACK 72 AUDIO
    TITLE "0:"
    INDEX 01 02:24:22
  TRACK 73 AUDIO
    TITLE "3:cjc151_4258"
    INDEX 01 02:26:03
  TRACK 74 AUDIO
    TITLE "0:"
    INDEX 01 02:29:39
  TRACK 75 AUDIO
    TITLE "2:cjc151_4259"
    INDEX 01 02:31:24
  TRACK 76 AUDIO
    TITLE "0:"
    INDEX 01 02:32:25
  TRACK 77 AUDIO
    TITLE "3:cjc151_4260"
    INDEX 01 02:34:15
  TRACK 78 AUDIO
    TITLE "0:"
    INDEX 01 02:38:32
  TRACK 79 AUDIO
    TITLE "2:cjc151_4261"
    INDEX 01 02:40:07
  TRACK 80 AUDIO
    TITLE "0:"
    INDEX 01 02:41:09
  TRACK 81 AUDIO
    TITLE "3:cjc151_4262"
    INDEX 01 02:42:69
  TRACK 82 AUDIO
    TITLE "0:"
    INDEX 01 02:47:62
  TRACK 83 AUDIO
    TITLE "2:cjc151_4263"
    INDEX 01 02:49:44
  TRACK 84 AUDIO
    TITLE "0:"
    INDEX 01 02:50:37
  TRACK 85 AUDIO
    TITLE "3:cjc151_4264"
    INDEX 01 02:52:14
  TRACK 86 AUDIO
    TITLE "0:"
    INDEX 01 02:55:28
  TRACK 87 AUDIO
    TITLE "2:cjc151_4265"
    INDEX 01 02:57:08
  TRACK 88 AUDIO
    TITLE "0:"
    INDEX 01 02:58:17
  TRACK 89 AUDIO
    TITLE "3:cjc151_4266"
    INDEX 01 02:59:73
  TRACK 90 AUDIO
    TITLE "0:"
    INDEX 01 03:03:01
